
<svg xmlns="http://www.w3.org/2000/svg" viewBox="0 0 602 182" width="100%" height="100%">
  <path fill="currentColor" d="M374.508 142.045c-34.763 25.457-85.154 39.033-128.544 39.033-60.781 0-115.536-22.271-156.946-59.313-3.254-2.93-0.335-6.916 3.568-4.644 44.605 25.781 99.461 41.358 156.262 41.358 38.336 0 80.505-7.908 119.329-24.237 5.851-2.431 10.784 3.893 6.331 7.803z"/>
  <path fill="currentColor" d="M388.508 126.256c-4.457-5.715-29.533-2.7-40.849-1.363-3.42 0.428-3.957-2.569-0.865-4.719 20.015-14.082 52.806-10.015 56.571-5.296 3.771 4.719-0.99 37.579-19.75 53.229-2.891 2.431-5.651 1.135-4.368-2.079 4.25-10.565 13.749-34.277 9.259-39.772z"/>
  <path fill="currentColor" d="M348.509 24.094V7.861c0-2.294 1.736-3.806 3.802-3.806h67.642c2.158 0 3.896 1.543 3.896 3.806v13.878c-0.025 2.151-1.838 4.958-5.045 9.402l-35.049 49.952c13.017-0.308 26.779 1.651 38.524 8.304 2.653 1.512 3.368 3.712 3.583 5.885v17.248c0 2.211-2.442 4.791-5.008 3.461-20.925-10.968-48.688-12.143-71.789 0.114-2.364 1.28-4.819-1.283-4.819-3.495v-16.319c0-2.458 0.058-6.669 2.523-10.407l40.607-58.24h-35.34c-2.153 0-3.896-1.575-3.896-3.869l0.367-0.226z"/>
  <path fill="currentColor" d="M124.999 105.543h-20.775c-1.981-0.143-3.551-1.633-3.706-3.522V8.348c0-2.129 1.784-3.81 3.987-3.81h19.366c2.016 0.094 3.615 1.641 3.769 3.575v12.278h0.379c5.043-13.426 14.525-19.678 27.313-19.678 12.981 0 21.162 6.252 26.99 19.678 5.023-13.426 16.465-19.678 28.693-19.678 8.704 0 18.232 3.602 24.055 11.62 6.574 8.91 5.259 21.854 5.259 33.157l-0.016 59.576c0 2.127-1.785 3.809-3.975 3.809h-20.762c-2.067-0.143-3.7-1.807-3.7-3.809V54.823c0-4.383 0.379-15.24-0.568-19.393-1.513-6.961-6.042-8.911-11.893-8.911-4.901 0-10.038 3.275-12.131 8.51-2.092 5.213-1.896 13.932-1.896 19.793v47.209c0 2.127-1.782 3.809-3.974 3.809h-20.761c-2.079-0.143-3.702-1.807-3.702-3.809V54.823c0-11.62 1.892-28.698-12.459-28.698-14.525 0-13.957 16.678-13.957 28.698v47.209c0 2.127-1.784 3.809-3.975 3.809h-0.379l0.029-0.297z"/>
  <path fill="currentColor" d="M560.951 1.126C535.001 1.126 520.25 29.069 520.25 64.981c0 34.284 13.125 63.054 40.905 63.054 25.658 0 40.533-29.207 40.533-65.375 0-36.171-14.123-61.532-40.748-61.532M562.1 17.515c13.035 0 12.389 17.685 12.389 28.706 0 11.01-0.096 34.639-12.389 34.639-12.39 0-12.985-21.966-12.985-35.35 0-8.798-0.379-28.007 12.985-27.997"/>
  <path fill="currentColor" d="M232.616 105.543h-20.721c-2.066-0.143-3.707-1.807-3.707-3.809V7.691c0.173-1.809 1.926-3.202 3.989-3.202h19.277c1.801 0.094 3.293 1.316 3.702 2.937v14.626h0.379c5.818-14.627 13.981-21.587 28.314-21.587 9.317 0 18.383 3.354 24.207 12.55 5.393 8.511 5.393 22.835 5.393 33.157v67.064c-0.231 1.875-1.95 3.254-3.988 3.254h-20.857c-1.876-0.143-3.432-1.52-3.766-3.254V53.31c0-11.62 1.347-28.698-12.997-28.698-5.042 0-9.697 3.372-12.011 8.511-2.904 6.496-3.294 12.992-3.294 20.188v48.42c-0.035 2.128-1.833 3.811-4.022 3.811h-0.094l0.189 0.001z"/>
  <path fill="currentColor" d="M459.602 58.843c0 8.158 0.189 14.97-3.897 22.219-3.33 5.981-8.606 9.65-14.497 9.65-8.042 0-12.747-6.145-12.747-15.241 0-17.932 16.09-21.2 30.139-21.2v4.571zm20.475 49.542c-1.341 1.207-3.29 1.283-4.809 0.486-6.753-5.581-7.951-8.178-11.679-13.509-11.18 11.418-19.135 14.837-33.631 14.837-17.178 0-30.54-10.59-30.54-31.846 0-16.588 8.988-27.888 21.837-33.433 11.143-4.854 26.699-5.711 38.608-7.069v-2.651c0-4.89 0.379-10.666-2.51-14.883-2.51-3.772-7.332-5.327-11.604-5.327-7.874 0-14.889 4.034-16.609 12.415-0.358 1.873-1.718 3.719-3.591 3.809l-20.287-2.175c-1.702-0.378-3.592-1.761-3.119-4.383 4.659-24.514 26.895-31.953 46.791-31.953 10.198 0 23.513 2.715 31.556 10.422 10.195 9.5 9.215 22.163 9.215 35.956v32.566c0 9.789 4.04 14.105 7.853 19.36 1.337 1.84 1.635 4.037-0.057 5.401-4.259 3.546-11.842 10.186-16.012 13.899l-0.065-0.093-0.347 0.16z"/>
  <path fill="currentColor" d="M72.299 58.843c0 8.158 0.208 14.97-3.909 22.219-3.327 5.981-8.592 9.65-14.487 9.65-8.042 0-12.727-6.145-12.727-15.241 0-17.932 16.091-21.2 31.123-21.2v4.571zm20.476 49.542c-1.346 1.207-3.296 1.283-4.798 0.486-6.753-5.581-7.963-8.178-11.691-13.509-11.16 11.418-19.117 14.837-33.625 14.837-17.191 0-30.533-10.59-30.533-31.846 0-16.588 9.013-27.888 21.861-33.433 11.116-4.854 26.683-5.711 38.578-7.069v-2.651c0-4.89 0.398-10.666-2.494-14.883-2.533-3.772-7.332-5.327-11.59-5.327-7.889 0-14.917 4.034-16.625 12.415-0.351 1.873-1.723 3.719-3.58 3.809L17.99 28.94c-1.7-0.378-3.613-1.761-3.103-4.383C19.55 0.044 41.814-7.396 61.706-7.396c10.196 0 23.497 2.715 31.563 10.422 10.194 9.5 9.226 22.163 9.226 35.956v32.566c0 9.789 4.06 14.105 7.834 19.36 1.357 1.84 1.667 4.037-0.038 5.401-4.276 3.546-11.859 10.186-16.011 13.899l-0.066-0.093-0.439 0.16z"/>
</svg>
