
<svg xmlns="http://www.w3.org/2000/svg" viewBox="0 0 160 48" width="100%" height="100%">
  <path d="M96.02,22.33c-5.39,4-13.2,6.12-19.94,6.12c-9.42,0-17.91-3.5-24.31-9.32c-0.5-0.46-0.05-1.08,0.55-0.73c6.9,4.05,15.43,6.48,24.25,6.48c5.94,0,12.47-1.24,18.49-3.8C95.98,20.62,96.87,21.67,96.02,22.33z" fill="#FF9900"/>
  <path d="M98.34,19.6c-0.69-0.89-4.56-0.42-6.3-0.21c-0.53,0.06-0.61-0.4-0.13-0.73c3.09-2.18,8.14-1.55,8.73-0.82c0.59,0.73-0.16,5.81-3.04,8.24c-0.44,0.37-0.87,0.17-0.67-0.32C97.55,24.02,99.03,20.49,98.34,19.6z" fill="#FF9900"/>
  <path d="M88.03,12.62V10.4c0-0.37,0.28-0.62,0.62-0.62h11.02c0.35,0,0.64,0.25,0.64,0.62v1.9c0,0.35-0.3,0.81-0.83,1.55l-5.71,8.2c2.12-0.05,4.36,0.27,6.29,1.35c0.43,0.24,0.55,0.59,0.58,0.94v2.37c0,0.35-0.39,0.77-0.8,0.56c-3.33-1.76-7.76-1.95-11.45,0.02c-0.38,0.2-0.77-0.21-0.77-0.56v-2.24c0-0.4,0.01-1.08,0.4-1.68l6.62-9.54H88.65C88.31,13.24,88.03,12.98,88.03,12.62z" fill="#232F3E"/>
  <path d="M32.14,25.75h-3.35c-0.32-0.02-0.57-0.26-0.6-0.57V10.48c0-0.34,0.29-0.62,0.64-0.62h3.12c0.32,0.01,0.58,0.26,0.61,0.57v1.92h0.06c0.82-2.19,2.36-3.21,4.44-3.21c2.11,0,3.43,1.03,4.38,3.21c0.82-2.19,2.67-3.21,4.66-3.21c1.41,0,2.96,0.59,3.9,1.9c1.06,1.45,0.84,3.56,0.84,5.41v10.88c0,0.34-0.29,0.62-0.64,0.62h-3.34c-0.33-0.02-0.6-0.29-0.6-0.62V17.54c0-0.75,0.07-2.61-0.1-3.32c-0.25-1.19-1.01-1.53-1.99-1.53c-0.82,0-1.68,0.55-2.03,1.42c-0.35,0.87-0.31,2.33-0.31,3.42v7.58c0,0.34-0.29,0.62-0.64,0.62h-3.34c-0.34-0.02-0.6-0.29-0.6-0.62V17.54c0-1.97,0.32-4.87-2.11-4.87c-2.46,0-2.36,2.81-2.36,4.87v7.58C32.78,25.45,32.49,25.75,32.14,25.75z" fill="#232F3E"/>
  <path d="M68.67,10.7c4.9,0,7.55,4.2,7.55,9.54c0,5.17-2.93,9.24-7.55,9.24c-4.81,0-7.43-4.2-7.43-9.44C61.24,14.77,63.9,10.7,68.67,10.7z M68.67,14.42c-2.44,0-2.59,3.32-2.59,5.39c0,2.07-0.03,6.5,2.56,6.5c2.56,0,2.69-3.57,2.69-5.75c0-1.43-0.06-3.15-0.49-4.51C70.4,14.85,69.6,14.42,68.67,14.42z" fill="#232F3E"/>
  <path d="M79.95,25.75h-3.33c-0.33-0.02-0.6-0.29-0.6-0.62V10.41c0.03-0.31,0.3-0.56,0.64-0.56h3.1c0.29,0.01,0.53,0.21,0.59,0.48v2.31h0.06c0.94-2.34,2.24-3.45,4.55-3.45c1.5,0,2.95,0.54,3.89,2.01c0.87,1.36,0.87,3.63,0.87,5.27v10.67c-0.04,0.31-0.3,0.56-0.64,0.56h-3.35c-0.31-0.02-0.56-0.25-0.6-0.56V17.5c0-1.97,0.23-4.84-2.19-4.84c-0.85,0-1.63,0.57-2.02,1.43c-0.49,1.09-0.56,2.18-0.56,3.41v7.63C80.56,25.45,80.29,25.75,79.95,25.75z" fill="#232F3E"/>
  <path d="M13.54,25.94c-0.24,0.02-0.44-0.12-0.49-0.3L9.39,15l-3.55,10.6c-0.05,0.19-0.25,0.33-0.49,0.33H2.83c-0.24,0-0.44-0.14-0.49-0.33L0,10.75c0-0.1,0.1-0.19,0.22-0.19h2.43c0.23,0.02,0.43,0.14,0.47,0.33l1.86,11.23l3.45-11.23c0.05-0.19,0.24-0.33,0.48-0.33h2.49c0.24,0,0.44,0.14,0.48,0.33l3.49,11.38l1.91-11.38c0.04-0.19,0.24-0.33,0.47-0.33h2.31c0.12,0,0.22,0.1,0.19,0.19l-2.43,14.86c-0.05,0.19-0.24,0.33-0.49,0.33H13.54z" fill="#232F3E"/>
  <path d="M122.5,26.27c-1.35,1.23-3.29,1.89-5.34,1.89c-3.8,0-7.22-2.8-7.22-8.38c0-5.18,3.1-8.38,7.65-8.38c3.04,0,5.04,1.46,6.15,4.55l-5.49,2.06c-0.57-1.58-1.19-2.06-2.11-2.06c-1.56,0-2.59,1.89-2.59,4.5c0,2.81,0.88,4.2,2.7,4.2c0.82,0,1.58-0.41,2.16-1.37l4.08,1.98z" fill="#232F3E"/>
  <path d="M133.14,19.32c0,1.78-0.05,3.28-0.67,4.87c-0.52,1.3-1.34,2.11-2.27,2.11c-1.26,0-2-1.52-2-3.8c0-3.38,1.51-4.46,4.94-4.46v1.27z M137.88,26.27h-4.7l0.11-1.58c-1.28,1.27-2.13,1.89-3.91,1.89c-2.01,0-3.61-2.46-3.61-5.5c0-4.76,3.32-5.91,8.46-5.91v-0.5c0-1.15-0.16-2.49-2.2-2.49c-1.51,0-1.73,0.78-1.85,1.8l-4.57-0.44c0.51-3.9,3.44-4.84,6.55-4.84c6.61,0,6.73,3.97,6.73,7.4v10.16z" fill="#232F3E"/>
  <path d="M149.37,26.27l-3.48-12.57h-0.11l-3.4,12.57h-5.03l-5.03-19.57h4.89l3.13,14.29h0.11l3.33-14.29h4.33l3.49,14.29h0.11l3.07-14.29h4.7l-4.95,19.57h-5.17z" fill="#232F3E"/>
</svg>
