
<svg xmlns="http://www.w3.org/2000/svg" viewBox="0 0 448 512" width="100%" height="100%">
  <path fill="currentColor" d="M257.2 162.7c-48.7 1.8-169.5 15.5-169.5 117.5 0 109.5 138.3 114 183.5 43.2 6.5 6.5 18 3.7 21-6.1V162.7zm-246.6-32c0 36.5 20.2 71.2 53.1 95.8-19.7 1.9-44.3 5.2-75.2 16.6-2 .8-3.1 3.2-3.1 5.2v81.6c0 2.6 2.4 4.4 4.9 3.8 34.1-7.1 63.4-13.2 102.6-13.2 40.6 0 80.9 7.1 105.2 13 2.6.6 5-.7 5-3.4v-80.2c0-2.3-1.5-4.2-3.2-5.2-8.9-4.5-23.5-9.1-52.6-16.1-36.4-15.7-60.2-46.5-60.2-89.1 0-56.8 42.2-98.5 105.9-98.5 40.7 0 79.9 9.6 102.8 18 2.2.8 3.2 3.2 3.2 5.4v116.5c0 4.5-4.8 7.6-8.9 5.6-36.9-17.8-64.5-20.8-99.4-20.8-61.5 0-73.4 31.4-73.4 44.9 0 12.1 5.7 34.7 86 34.7 46.5 0 92.7-7.5 125.9-19.1 5.2-1.8 9.1 2.1 9.1 7.3v40.8c0 5.2-4.2 9.5-8.9 11.2-25.1 9.2-80.9 25.2-164 25.2-155.4 0-250.9-93.2-250.9-250.5S132.9 8 236 8c103.8 0 149.2 54.2 149.2 54.2 2.6 2.7 1.5 6.8-1.8 8.5-19.8 10.9-43.8 27.4-60.5 27.4-8.9 0-11.6-5.6-11.6-10.4 0-19.5-41.8-49-84.7-49S10.6 72.8 10.6 130.7z"/>
</svg>
