
<svg xmlns="http://www.w3.org/2000/svg" viewBox="0 0 448 512" width="100%" height="100%">
  <path fill="currentColor" d="M257.2 162.7c-48.7 1.8-169.5 15.5-169.5 117.5 0 109.5 138.3 114 183.5 43.2 6.5 6.4 33.5 35.1 37.2 39.4-8.7 11.4-21.8 27.6-36.4 45.6-59.5 67.4-154.8 71.4-191.6 45-3.3-2.3-6-6.2-2.4-10l7.8-13c2.7-3.8 10.3-7.5 9.8-.3 3-13.2 13.7-23.1 21.9-29.6 11.9-9.3 26.4-16.1 42.8-16.1 3.3 0 22.8-5.3 27-8 1.7-1.1-9.9-7.3-10.9-7.7-8.4-3.4-78.5-10.9-86.8 10.8-8.2 21.3 18.3 28.9 34.3 25 39.6-9.3 40.3-46.8 77.5-59.9 20.2-7.1 43.6-4.8 65.6-8.8 12.5-2.3 16.8-8.9 36.5-8.9V169c0-40.3-78.7-38.3-111.7-38.7-59.6-.7-100.8 10.3-112.1 32.7-24.5 48.6 44.8 65.2 73.1 65.2 63.6 0 59.8-49.8 80.2-49.8 5.2 0 16.2 1.6 16.2 10 0 53-140 26.5-140 137 0 5.2 2.8 81.7 146.8 81.7 88.2 0 120.8-33.9 120.8-84.7 0-49-25.8-74-77.8-75.7-77.4-3.1-64.9 76.8-149.2 77.1-6.5 0-12.5-.4-17.2-3.5 1.4-.9 33.5-33.1 53.5-52 7.5-7.2 10.7-10 11.7-16.5 4 0 33.1 1.9 47.3 1.9 67.6 0 116.8-31.7 116.8-99.3zm-212.5-32c22.8-13.6 77.1-15 94.6 9.3 6.8 9.4-3.3 28.5-14.9 23.3-21.7-9.7-62.4-8.8-79.3 7.3-15.9 15.1-4.5 28.8-5.2 29.7-17.8-4.8-23.8-31.9 4.8-69.3z"/>
</svg>
