
<svg xmlns="http://www.w3.org/2000/svg" viewBox="0 0 602 182" width="100%" height="100%" fill="#232F3E">
  <path d="M374.006,142.184L374.006,142.184l-22.223,0.001c-0.852,0-1.544-0.616-1.677-1.426l-23.816-143.49 c-0.155-0.937,0.58-1.784,1.522-1.784l21.129-0.001c0.862,0,1.561,0.627,1.681,1.456l8.559,54.071 c0.12,0.83,0.818,1.457,1.68,1.457l15.338,0.001c0.786,0,1.466-0.549,1.641-1.307l9.784-42.054c0.175-0.758,0.855-1.308,1.641-1.307 l20.43,0.001c0.918,0,1.65,0.767,1.545,1.676l-11.668,50.349c-0.105,0.908,0.628,1.676,1.546,1.676h17.45 c0.816,0,1.505,0.579,1.663,1.367l5.69,28.185c0.204,1.012-0.561,1.96-1.595,1.96h-17.7c-0.815,0-1.504-0.577-1.662-1.365 l-5.591-27.694c-0.158-0.787-0.847-1.365-1.662-1.365H383.84c-0.833,0-1.541,0.599-1.681,1.414l-6.471,42.065 C375.545,141.609,374.837,142.184,374.006,142.184z M283.742,126.477l-5.089,15.291c-0.204,0.614-0.779,1.029-1.433,1.029 h-21.006c-0.914,0-1.649-0.764-1.552-1.669l33.79-160.622c0.091-0.855,0.821-1.497,1.686-1.497h31.275 c0.868,0,1.6,0.647,1.686,1.506l33.471,160.612c0.094,0.902-0.637,1.67-1.548,1.67h-21.014c-0.65,0-1.222-0.418-1.427-1.029 l-5.185-15.291c-0.205-0.612-0.777-1.03-1.429-1.03h-40.298C284.519,125.447,283.946,125.865,283.742,126.477L283.742,126.477 z M302.897,98.266c-0.67,0-1.248-0.46-1.408-1.109l-7.631-30.809c-0.854-3.448-6.409-3.448-7.263,0l-7.469,30.809 c-0.159,0.649-0.738,1.109-1.408,1.109H302.897L302.897,98.266z M575.176,139.779L575.176,139.779l-78.742,0.001 c-0.849,0-1.542-0.615-1.675-1.425l-23.925-143.491c-0.157-0.937,0.578-1.785,1.522-1.785l20.949-0.001 c0.859,0,1.558,0.623,1.679,1.448l20.811,140.462c0.121,0.825,0.82,1.448,1.679,1.448l32.779-0.001 c0.856,0,1.554-0.619,1.677-1.442l20.779-140.467c0.122-0.825,0.82-1.449,1.678-1.449h20.977c0.942,0,1.677,0.847,1.521,1.783 l-23.835,143.495C576.718,139.164,576.024,139.779,575.176,139.779z M529.752,112.472L529.752,112.472l-28.779,0.001 c-0.853,0-1.545-0.619-1.676-1.428L488.82,42.022c-0.23-1.411-2.213-1.494-2.551-0.108l-10.954,69.131 c-0.133,0.812-0.831,1.429-1.686,1.428l-28.43-0.001c-0.919,0-1.616-0.808-1.52-1.716l25.247-160.505 c0.093-0.851,0.821-1.492,1.672-1.492h31.192c0.853,0,1.581,0.641,1.673,1.492l25.29,160.505 C531.37,111.661,530.67,112.471,529.752,112.472z M220.91,142.167L220.91,142.167l-20.566,0.001c-0.859,0-1.557-0.625-1.677-1.452 l-8.463-58.04c-0.12-0.825-0.818-1.451-1.677-1.451H150.68c-0.857,0-1.555,0.622-1.677,1.447l-8.232,58.047 c-0.119,0.825-0.817,1.447-1.676,1.447l-22.425,0.001c-0.952,0-1.683-0.859-1.523-1.801l25.201-143.468 c0.157-0.899,0.941-1.551,1.857-1.551l24.55-0.001c13.531,0,25.721,4.543,34.033,12.748 c8.278,8.171,12.856,19.432,12.856,31.666c0,10.631-3.394,19.905-9.801,26.835c-5.989,6.491-14.21,10.868-23.599,12.642 c-2.453,0.463-3.799,2.987-2.979,5.335l16.955,48.562C222.644,141.184,221.883,142.167,220.91,142.167z M182.039,31.053 c-0.932,0-1.666,0.835-1.507,1.755l6.521,37.524c0.108,0.895,0.866,1.569,1.774,1.569h19.023c6.09,0,10.752-1.262,13.88-3.746 c3.127-2.484,4.69-6.247,4.69-11.26c0-9.41-6.314-14.161-19.089-14.161l-17.359,0C188.837,42.734,182.039,31.053,182.039,31.053z M83.109,143.507L83.109,143.507L61.385,143.51c-0.817,0-1.505-0.576-1.664-1.36l-3.496-17.251 c-0.306-1.511-2.419-1.453-2.648,0.072l-3.107,17.522c-0.132,0.816-0.833,1.418-1.657,1.418l-20.908,0.003 c-0.915,0-1.611-0.792-1.526-1.695l7.112-75.629c0.085-0.9-0.608-1.693-1.521-1.693L16.987,63.898 c-0.832,0-1.539-0.602-1.675-1.425L12.44,43.179c-0.197-1.182,0.712-2.251,1.914-2.251l20.436-0.003 c0.848,0,1.539,0.615,1.67,1.428l15.598,96.162c0.205,1.262,1.961,1.259,2.16-0.004l16.465-96.16 c0.128-0.812,0.819-1.428,1.667-1.427l20.436,0.003c1.203,0,2.111,1.069,1.915,2.251l-2.857,19.291 c-0.136,0.825-0.845,1.428-1.68,1.428H74.137c-0.912,0-1.605,0.792-1.521,1.691l7.053,75.624 C79.753,142.713,79.058,143.507,83.109,143.507z M31.894,116.51L31.894,116.51l-21.557,0.002c-0.795,0-1.475-0.541-1.658-1.298 C3.844,96.799,0.5,85.231,0.5,72.198c0-34.601,19.9-52.303,59.137-52.303l20.782-0.001c0.86,0,1.561,0.629,1.68,1.459 l3.799,26.069c0.171,1.178-0.735,2.244-1.926,2.244l-18.922,0c-14.456,0-21.702,5.826-21.687,17.411 c-0.05,3.954,1.221,7.202,3.827,9.678c2.556,2.424,6.232,3.649,10.933,3.649l4.766-0.001c0.845,0,1.53,0.686,1.53,1.532v8.069 c0,0.845-0.686,1.531-1.53,1.531h-5.172c-3.218,0-5.612,0.514-7.16,1.514c-1.55,1-2.291,2.743-2.234,5.2 c-0.055,2.788,0.868,4.709,2.773,5.754c1.853,1.024,4.907,1.561,9.106,1.561h7.356c0.923,0,1.628,0.799,1.532,1.706 l-0.804,7.637C33.445,115.896,32.733,116.51,31.894,116.51z M451.727,141.504L451.727,141.504l-20.542,0.003 c-0.85,0-1.545-0.621-1.671-1.44l-14.9-96.851c-0.194-1.261-1.95-1.263-2.15-0.004L396.6,140.062 c-0.132,0.823-0.826,1.445-1.681,1.445l-20.779,0.001c-0.853,0-1.547-0.622-1.684-1.445l-15.637-96.851 c-0.19-1.254-1.948-1.254-2.138,0l-15.004,96.855c-0.136,0.819-0.83,1.44-1.683,1.44l-20.535-0.003 c-0.922,0-1.616-0.808-1.517-1.719l24.151-160.454c0.093-0.855,0.823-1.501,1.683-1.501l32.121-0.001 c0.86,0,1.592,0.647,1.686,1.502l15.382,96.178c0.203,1.266,1.978,1.266,2.181,0l14.949-96.177 c0.094-0.857,0.828-1.504,1.688-1.504l32.133,0.001c0.86,0,1.59,0.645,1.684,1.5l24.521,160.458 C453.345,140.697,452.65,141.504,451.727,141.504z"/>
  <path d="M311.929,182c-51.595,0.008-114.5-17.088-156.267-53.787c-1.347-1.2-0.442-3.344,1.321-3.114 c50.624,7.688,111.572,10.975,159.709,3.127c7.221-1.157,13.8,5.134,10.936,11.825C322.695,149.949,319.03,182,311.929,182z M327.577,165.525c-1.894-2.423-1.249-5.915,1.175-7.809l18.024-14.099c2.424-1.895,5.917-1.251,7.811,1.174 c1.896,2.422,1.249,5.916-1.173,7.812l-18.024,14.098C332.965,168.6,329.47,167.949,327.577,165.525z"/>
</svg>
