
<svg xmlns="http://www.w3.org/2000/svg" viewBox="0 0 448 512" width="100%" height="100%" fill="currentColor">
  <path d="M246.4 204.3c-11 0-19 3.4-25.2 8.3-2 1.6-1.7 3.9.5 3.6 7.1-.9 14.3-1 21.3.7 2.1.5 2.4-1.5.4-2.7-3.4-2.1-2.1-9.2 3.8-8.4 6 .8 4.2 9-3.3 12.4-2.6 1.2-1 3.8 1.6 2.5 7.5-3.9 8.9-13.8 5.1-17.5-3.5-3.3-9.5-4.5-14.3-3.8-13.4 2-22.4 15.1-14.3 24.1 15.6 17.3 38.2-2.6 24.4-19.2zm-70.2 30.3c-5.5 3.7-12.5 3-17.4-1.9-4.5-4.4-5.6-9.7-3.2-14.9 1.9-4.2 5.6-7.1 10.1-8.8 4.7-1.7 9.5-2.5 14.3-8 4.5-5.1 6-3.4 6-3.4s2.7 2.4-2.9 8c-5.3 5.3-14 6.7-17.7 8-3.6 1.4-4.8 2.8-5.4 3.4-.9.9-1.7 1.9-2.2 3.1-1.1 2.5-.7 6.4 6.7.9 7.2-5.3 10.5-3 11.7-1.6 1.2 1.3.1 4.4-1.2 6-.7 1-2.9 2.2-4.3 3.3-1.4 1.1-2.5 2.1-3.1 3-.9 1.3-.9 3.1 1.3 1.4 2.1-1 16.3-9.8 16.1 4.6 0 14.3-20.3 11.4-20.3 11.4-9.9 1.8-17.5-3-18.3-11.8-.8-8.8 5.9-19.2 16.3-22.8 10.3-3.4 15.7-2.1 16.3 0 .6 2.2-2.4 3.2-5.9 2.2zm215.1 34.2c-3.2-3-8.5-2.9-12.2.3-3.7 3.3-3.8 8.6-.6 11.6s8.5 2.9 12.2-.3c3.7-3.3 3.8-8.6.6-11.6zm-160.5 11c-3.1-2.9-8.4-2.8-12.1.4-3.7 3.2-3.8 8.5-.7 11.5 3.1 2.9 8.4 2.8 12.1-.4 3.7-3.2 3.8-8.5.7-11.5zm182.8 78.1c-16.3 13.8-36 19.8-56.3 24.8-44.9 11-90.3 4.1-136.6-5-6.6-1.3-10 5.4-3.1 7.6 24.6 7.9 66.3 14.3 112 14.3s89.5-5.2 125.4-29.9c8.7-5.9-5.1-21.5-41.4-11.8zm31.6-19.2c-.4-2.3.2-4.3 1.8-4.5 1.5-.3 3.2 1.2 3.7 3.5.4 2.3-.2 4.3-1.8 4.5-1.5.3-3.2-1.2-3.7-3.5zm-8.6-10.3c.9 4.8-2 8.8-6.4 8.9-4.4.1-8.5-3.8-9.4-8.6-.9-4.8 2-8.8 6.4-8.9 4.4-.1 8.5 3.8 9.4 8.6zm-45.4 24.6c16.9-13.4 30.4-31.1 36-46.6 5.7-15.5 4.9-50.9-1.3-73.8-6.1-22.7-41.8-19.5-69.3-6.9-27.5 12.7-38.2 33.4-42.3 54.8-4.1 21.3 1.8 35.5 4.9 45.7 3.1 10.2 9.5 21.1 2.8 30.9-6.6 9.8-26.7 13.3-35.3 13.8-8.6.5-13.3 6.5-12.5 11.7.9 5.1 10.1 13.6 37.2 14.8 27.2 1.1 44-8.3 58.2-14.8 14.3-6.5 21.7-8.6 21.7-8.6s-14.6 21.4-39.4 37.5c-24.8 16.1-55.2 20.6-63 20.9-7.8.3-9 5.5-3.5 7.8 5.5 2.3 21.2 8.6 49.1 9.7 27.9 1.2 61.2-10.7 85.3-29.2 24.1-18.5 40.2-45.9 42.3-48.6 2.2-2.7 1.5-9-7.5 1.5zM216.3 229c10.7 2.4 18.6 3.9 32.9 4.4 14.3.6 51-12.4 84.4-11 33.4 1.5 47.5 11.1 48 21.1.5 10.1-18.7 8.1-31.6 15.8-12.9 7.7-15.2 23-7.5 36.3 7.7 13.3 44.2 22.6 41.1-3.9-3.1-26.5 33.4-34.8 43.9-28.1 10.6 6.7 11.6 27.5-11.5 38.4-23.1 10.8-83.6 14.1-116.2 18.8-32.6 4.7-50.1 11.9-60.9 27.6-10.8 15.7-.6 54.7 65.9 61 66.5 6.3 76.9-18.1 85.7-23.5 8.8-5.3 8.3-7.9 4.1-7.7-4.2.2-8.9 7.4-28 8.7-19.1 1.4-54.4-3.1-56.7-38.9-2.3-35.8 48.6-35.9 82.1-11.9 33.5 24.1 34.8 41.4 57.4 43.3 22.6 1.9 31.3-8.4 34.3-22.8 3-14.4-.5-24.5-12.9-29.1-12.4-4.6-34.5-1.6-48-3.5-13.6-1.9-43.8-.8-55.3-11.5-11.5-10.7-16.8-46.1-12.5-59.7 4.3-13.6 15.8-15.9 26.5-13.5z"/>
</svg>
