
<svg xmlns="http://www.w3.org/2000/svg" viewBox="0 0 842 1000" width="100%" height="100%">
  <path fill="currentColor" d="M702 960c-54.2 52.6-114 44.4-171 19.6-60.6-25.3-116-26.9-180 0-73.2 31.3-121 24.6-172-19.6C-29.8 793.2-30.4 500.4 201 431.2c56.8-17 108-15.4 158 5.3 41.8 17.3 91.8 15.8 136 0 52.1-18.1 106-16.6 156 10.2 68 36.2 104 100 104 170.4 0 18.4-13.2 44.5-22 63.2-23.5 47.2-90.5 219.8-151 275.2-41.6 36.4-78.7 53.1-124 31.7-39.2-18.8-68.4-47.9-110-46-42.6 1.9-67.4 26.2-110 48.8-42.8 22.7-73.9 20.6-122-10.7-53.2-33.5-64.6-41.9-103-75.6-23.5-20.8-40.1-46-49-76.2 148-4.5 177-22.2 203-75.6 26.5-53.4 21.2-138 9-207-1.1-5.6-2.3-11.6-3-18.5 70-58.8 97.8-138 95-227-4.7-155-142-257-273-156-66.4 51.4-69.8 150-3 207 21.3 18 41.6 36.7 55 61.9-61.7 94.9-39.9 154 16 239-57 60.2-162 198-349 138-220-69.5-268-383-218-555 11.1-38 31.6-72.5 58-99.4 75.6-76.7 192-87.3 285-42.2 22.3 10.2 43.4 24.3 59.6 42.2 40.4 45.1 32.4 107 75.9 142 19.5 16.3 48.3 20.1 74.8 12.7 55-16.2 65.4-86.6 35.9-131-19.5-28.6-54-44.7-65.2-81.9-11.2-36.5 8.5-76.8 35.9-104 131-131 462-31.9 445 189-5.5 73.8-50.8 128-104 165v160c0 97.4-34.8 191-158 216-90.5 18.2-177-19.9-208-91.4 53.2-34.8 73.6-82.9 75.9-142 61.5 6.8 123 4.6 142-63.2 2.5-9.7 2.5-19.9 0-30.7-7.1-26.1-39.8-36.7-75.9-36.7H523v-94.5c17-2.1 30.6-7.8 42.2-16.9-12.3 29.9-5.4 63.2 16.9 82.4 42 38.6 67.8 40.4 101 0 18.1-22.9 24.9-93.6-61.3-139-115-60.7-106-183 27-210 38.3-6.6 81.3-10.3 124 0z"/>
</svg>
