
<svg xmlns="http://www.w3.org/2000/svg" viewBox="0 0 725 725" width="100%" height="100%">
  <path fill="currentColor" d="M651.728 347.473H575.69V511.82c0 113.24-68.046 177.397-165.425 177.397-92.559 0-153.593-59.334-153.593-157.267V347.473h-76.038v184.477c0 136.139 86.535 225.549 215.37 225.549 66.517 0 121.886-22.595 162.181-63.9v47.287H651.73l-.002-393.413ZM258.672 183.003c0-30.71 24.872-56.59 57.67-56.59 32.806 0 57.67 25.88 57.67 56.59 0 30.713-24.864 56.59-57.67 56.59-32.798 0-57.67-25.877-57.67-56.59Zm246.322 0c0-30.71 24.876-56.59 57.672-56.59 32.798 0 57.67 25.88 57.67 56.59 0 30.713-24.872 56.59-57.67 56.59-32.796 0-57.672-25.877-57.672-56.59ZM117.998 125.406C139.362 101.09 178.59 76.5 208.646 64.14c89.68-36.812 187.87-35.775 276.993 2.928 29.688 12.904 68.335 38.164 89.13 62.337 5.12 5.949 11.21 20.428 5.33 28.44-6.027 8.236-19.433 4.349-27.105.773-32.764-15.261-61.945-30.607-97.845-37.814-84.673-17.014-178.39 2.328-248.33 55.662-5.945 4.528-11.686 9.407-17.233 14.482-6.563 5.99-17.793 13.04-26.722 9.303-11.407-4.77-7.732-19.78-1.517-27.55 10.267-12.837 28.83-31.42 43.65-45.295Z"/>
</svg>
