
<svg xmlns="http://www.w3.org/2000/svg" viewBox="0 0 800 800" width="100%" height="100%">
  <path d="M400,58.5c187.3,0,339.3,152,339.3,339.3c0,169.7-124.5,310.3-287.5,335.5V481.5h87l13.8-92.5h-100.8v-52c0-26.8,9.8-47.2,43.8-47.2h58.2v-80.7c-10.2-1.7-31.7-5-64-5c-76.2,0-130.8,46.7-130.8,132.2v57.7h-92.5v92.5h92.5v255.8C185.2,717.7,60.7,574.5,60.7,397.8C60.7,210.5,212.7,58.5,400,58.5z" fill="#0866FF"/>
  <path d="M552.5,390.5l-13.8,92.5h-87v252.8c10.5,1.5,21.2,2.2,32.2,2.2c3.5,0,7.1-0.1,10.7-0.2V483h87l13.8-92.5H552.5z" fill="#0080FF"/>
</svg>
