
<svg width="100%" height="100%" viewBox="0 0 256 256" version="1.1" xmlns="http://www.w3.org/2000/svg" xmlns:xlink="http://www.w3.org/1999/xlink" preserveAspectRatio="xMidYMid">
  <g>
    <path d="M256,128 C256,57.308 198.692,0 128,0 C57.308,0 0,57.307 0,128 C0,191.495 46.8,244.717 108.154,254.445 L108.154,164.995 L75.615,164.995 L75.615,128 L108.154,128 L108.154,99.808 C108.154,67.723 127.523,50.031 156.832,50.031 C171.026,50.031 185.886,52.532 185.886,52.532 L185.886,83.997 L169.693,83.997 C153.784,83.997 148.769,93.867 148.769,104.034 L148.769,128 L184.308,128 L178.525,164.995 L148.769,164.995 L148.769,254.445 C210.124,244.717 256,191.494 256,128 Z" fill="#1877F2"></path>
    <path d="M178.525,164.995 L184.308,128 L148.769,128 L148.769,104.034 C148.769,93.867 153.784,83.997 169.693,83.997 L185.886,83.997 L185.886,52.532 C185.886,52.532 171.026,50.031 156.832,50.031 C127.523,50.031 108.154,67.723 108.154,99.808 L108.154,128 L75.615,128 L75.615,164.995 L108.154,164.995 L108.154,254.445 C114.622,255.478 121.278,256 128,256 C134.722,256 141.378,255.478 147.846,254.445 L147.846,164.995 L178.525,164.995 Z" fill="#FFFFFF"></path>
  </g>
</svg>
