
<svg xmlns="http://www.w3.org/2000/svg" viewBox="0 0 512 512" width="100%" height="100%">
  <path fill="#0080FF" d="M255.52 412.11C103.22 412.11 0 321.34 0 196.57 0 71.81 103.22-19 255.52-19 407.82-19 511.04 71.81 511.04 196.57c0 124.77-103.22 215.54-255.52 215.54z"/>
  <path fill="#FFFFFF" d="M255.52 7.98c135.94 0 246.52 84.5 246.52 188.59 0 104.09-110.58 188.59-246.52 188.59-135.94 0-246.52-84.5-246.52-188.59C9 92.48 119.58 7.98 255.52 7.98z"/>
  <path fill="#0080FF" d="M348.19 182.55c5.54-16.75 16.63-83.43-23.32-105.86-39.95-22.44-81.76 45.11-80.81 42.45-6.52-17.75-17.04-82.55-69.99-82.55-52.96 0-72.6 131.23-72.6 131.23-3.86 21.3-7.62 33.86-7.62 67.65 0 84.19 45.68 92.74 76.46 92.74 30.77 0 58.79-17.75 77.27-47.32 18.48 29.57 46.5 47.32 77.27 47.32 72.99 0 77.41-95.4 75.48-114.62-1.9-19.2-58.01-14.29-52.14-31.04z M178.94 272.91c-15.83 23.97-29.4 27.53-43.69 27.53-30.8 0-46.81-27.53-46.81-75.31 0-65.54 26.57-118.81 56.42-118.81 22.79 0 31.08 30.41 36.25 57.49.34 1.78 3.3 19.95 6.17 34.18 2.65 13.19 2.52 12.49 5.21 22.67 4.91 18.55 3.75 13.93 5.31 24.09-1.14 15.96-6.06 11.68-18.86 28.15z M375.32 300.44c-14.28 0-27.86-3.57-43.69-27.53-12.03-15.49-17.5-12.88-18.65-28.01 2.56-10.76 4.8-24.05 5.45-24.36 4.43-21.89 5.94-28.71 11.29-57.15 5.12-27.08 13.41-57.49 36.2-57.49 29.85 0 56.42 53.26 56.42 118.81 0 47.78-15.92 75.73-47.02 75.73z"/>
</svg>
