
<svg xmlns="http://www.w3.org/2000/svg" viewBox="0 0 448 512" width="100%" height="100%" fill="#0080FF">
  <path d="M391.2 103.5H56.8c-12.1 0-21.8 9.7-21.8 21.8v270.3c0 12.1 9.7 21.8 21.8 21.8h334.4c12.1 0 21.8-9.7 21.8-21.8V125.3c0-12.1-9.7-21.8-21.8-21.8zM213.3 129.4c7.1-7.1 18.6-7.1 25.7 0l62.3 62.3c7.1 7.1 7.1 18.6 0 25.7l-62.3 62.3c-7.1 7.1-18.6 7.1-25.7 0l-62.3-62.3c-7.1-7.1-7.1-18.6 0-25.7l62.3-62.3zM224 256c0-17.7 14.3-32 32-32s32 14.3 32 32-14.3 32-32 32-32-14.3-32-32zm96 128c0 17.7-14.3 32-32 32s-32-14.3-32-32 14.3-32 32-32 32 14.3 32 32zm-128 0c0 17.7-14.3 32-32 32s-32-14.3-32-32 14.3-32 32-32 32 14.3 32 32zm-96-128c0-17.7 14.3-32 32-32s32 14.3 32 32-14.3 32-32 32-32-14.3-32-32z"/>
</svg>
