
<svg xmlns="http://www.w3.org/2000/svg" viewBox="0 0 1022.51 360" width="100%" height="100%">
  <path d="M166.43,126.68c-9.65,0-12.44,4.28-12.44,13.72v15.66h25.74l-2.58,25.3H154v76.78H123.11V181.36H102.3v-25.3h20.81V140.83c0-25.52,10.29-39,39-39a146.17,146.17,0,0,1,18,1.07v23.81Z" fill="#1877F2"/>
  <path d="M181.87,203.88c0-28.52,13.51-50,41.82-50,15.44,0,24.87,7.94,29.38,17.8V156.06h29.59V258.14H253.07V242.7c-4.29,9.87-13.94,17.59-29.38,17.59-28.31,0-41.82-21.45-41.82-50Zm30.88,6.87c0,15.22,5.57,25.3,19.94,25.3,12.66,0,19.09-9.22,19.09-23.8V202c0-14.58-6.43-23.8-19.09-23.8-14.37,0-19.94,10.08-19.94,25.3Z" fill="#1877F2"/>
  <path d="M347,153.91c12-14.15,28.08-21,46.31-21,41.6,0,54.92,30.88,55.35,64.08H358.79c1.29,21.78,13.72,31,33.88,31,11.59,0,23.59-2.58,32.58-6.87l6.87,21.45c-10.72,5.58-28.09,10.3-43.31,10.3-36.47,0-58.2-22.95-58.2-55.35Zm75.77,22.94c0-16.51-7.94-30-24.44-30-15.66,0-26.59,10.72-28.09,30Z" fill="#1877F2"/>
  <path d="M498.24,273.43c7.29-18.22,11.15-46.74,11.15-77.19V156.06h29.59V157c0,21,0,45.32-4.5,65.62,4.51,2.36,13.73,6,22.52,6,14.37,0,16.08-6,16.08-22.73V156.06h29.59V206.9c0,32.15-9.65,52.74-42.88,52.74a61.92,61.92,0,0,1-26.16-5.57l-4.93,19.37Z" fill="#1877F2"/>
  <path d="M617,156.06h29.59v8.15c6.87-6.43,15.88-11.15,30-11.15,20.81,0,34.31,9.65,34.31,33.67v71.41H681.3V198.81c0-17.37-7.72-23.81-17.8-23.81-10.72,0-16.94,7.3-16.94,18.66v64.48H617Z" fill="#1877F2"/>
  <path d="M778.87,176.65c-7.29-1.93-14.37-3-22.09-3-16.3,0-22.73,6-22.73,18,0,11.58,5.57,17.58,24.44,17.58,6.86,0,14.15-.64,20.38-1.71Zm-2.14,35c-8.15,2.57-17.16,3.86-24.88,3.86-29.81,0-46.1-14.37-46.1-38.17,0-24.23,20.39-38.39,45.75-38.39,8.58,0,16.73,1.07,24.88,3.22V133.6c0-11.36-8.15-17.37-22.09-17.37-11.37,0-25.09,4.5-33.45,9.65L712.33,107c12.65-6.87,28.73-11.8,44.4-11.8,34.1,0,48.46,15.88,48.46,43.32v59.83c0,2.57.21,8.57,1.07,10.29H778c-.86-1.72-1.29-7.73-1.29-10.72Z" fill="#1877F2"/>
  <path d="M892.07,180.94l40.11,77.2h-34.1L865.26,192.1l-17.37,16.94v49.1H818.3V99.1h29.59v73.19L886,134.67h35.17Z" fill="#1877F2"/>
  <path d="M1022.51,169.37,971.63,292.5H941.19l19.29-46.95-35.38-89.49h31l22.73,61c1.28,3.22,2.14,7.29,3,10.29,1.71-4.72,3-8.15,4.93-12.44l20.17-58.84Z" fill="#1877F2"/>
</svg>
