
<svg width="100%" height="100%" viewBox="0 0 512 512" version="1.1" xmlns="http://www.w3.org/2000/svg" xmlns:xlink="http://www.w3.org/1999/xlink" preserveAspectRatio="xMidYMid">
  <g>
    <path d="M470.4,102.9c0,0-20.5-24.7-74.8-12.5L72.5,146l42.8,157.6l20.9-5.7l14.5,53.1c10.5,20.2,25.9,18.8,39.3,15.6c0,0,7.1-2.2,10.9-4.2c3.3-1.7,6.2-4.5,9.3-6.2c5.7-2.9,8.8-2.3,8.8-2.3c8.8,1.5,15.7,9.1,15.7,20.6c0,5.5-1.9,10.5-5.1,14.4c0,0,0.6,0.7,0.2,0.6c-1.5,1.8-3.3,3.4-5.3,4.7c-5.5,3.6-8.6,4.4-16.6,8c-7.6,3.4-10.1,4.5-10.1,4.5c-18.5,8.5-41.3,7.5-60.1-2.6c-18.7-10.1-32.6-29.1-36.9-50.2l-16.2-59.5l-67.4,18.4L0,157L439.8,93.1c0,0,33.3-9,57.6,10.4c0,0-26.7-68.8-247.4-20.5c-201.9,44.1-211.7,185.5-211.7,185.5c-16.8,97.8,44.8,158.3,44.8,158.3c56.9,64.4,154.3,54.2,154.3,54.2c87.1-12.5,131.7-84.1,131.7-84.1c35.7-54.2,33.5-117.1,33.5-117.1l-9.9-113.8l77.3-21c0-0.1,12.9-2.7,0.4,32.9c-12.5,35.6-61.2,55.9-61.2,55.9l-174.3,48.2c-21.5,6.3-41.9-7.2-46.1-29.3c-4.2-22.2,9.4-42.8,30.9-49.1l150.6-40.9c20.8-6.1,34.6-26.4,30.2-48.5C396.3,97.4,379,87,359,91.5L151.5,146.3c-45.2,10.4-71.5,49.9-66.4,92.9c5.1,42.9,42.2,72.7,87.4,62.3l218.5-60C443.3,226.3,494.8,180.3,470.4,102.9z" fill="#0081FB"/>
    <path d="M391,132.4L265.1,164.8c-13,3.4-19.3,16.5-15.4,30.5c3.9,14,16.8,21.1,29.8,17.7l125.8-32.4c15.7-4.7,26.2-21.5,22.3-37.4c-3.9-15.9-18.7-23.9-34.4-19.1L219.4,178.7c-21.9,4.8-36.6,25.2-33.6,44c3,18.8,22.4,29.9,44.3,25.1l151.7-38.7c28.1-7.1,54.1-36.1,48.7-66.5C424.9,111.9,400.7,94.2,369.4,102L205.6,142c-41.2,9.4-68.1,46.2-62.5,84.6c5.5,38.4,42.4,62.6,83.5,53.2l176-47.5" fill="url(#paint0_radial)"/>
    <path d="M282.1,213c-13,3.4-25.9-3.6-29.8-17.7c-3.9-14,2.3-27.1,15.4-30.5l125.8-32.4c15.7-4.7,30.5,3.2,34.4,19.1c3.9,15.9-6.6,32.7-22.3,37.4L282.1,213z" fill="url(#paint1_radial)"/>
  </g>
  <defs>
    <radialGradient id="paint0_radial" cx="0" cy="0" r="1" gradientUnits="userSpaceOnUse" gradientTransform="translate(230.105 212.657) scale(235.027 235.027)">
      <stop offset="0" stop-color="#0064E1"/>
      <stop offset="0.4" stop-color="#0064E1"/>
      <stop offset="0.83" stop-color="#0073EE"/>
      <stop offset="1" stop-color="#0082FB"/>
    </radialGradient>
    <radialGradient id="paint1_radial" cx="0" cy="0" r="1" gradientUnits="userSpaceOnUse" gradientTransform="translate(319.723 167.95) scale(81.0923 81.0923)">
      <stop offset="0" stop-color="#00C1FF"/>
      <stop offset="1" stop-color="#00C1FF" stop-opacity="0"/>
    </radialGradient>
  </defs>
</svg>
