
<svg xmlns="http://www.w3.org/2000/svg" viewBox="0 0 640 512" width="100%" height="100%">
  <path fill="#0080FF" d="M640 317.9C640 409.2 600.6 466.4 532.5 466.4C475.5 466.4 434.2 428.3 419.2 379.4L322.3 467.2L275.7 467.2L385.2 367.7C377.7 339.5 374.8 308.9 374.8 282.4L374.8 262.7L320.4 262.7L320.4 213.5L374.8 213.5L374.8 145.3L427.2 145.3L427.2 213.5L481.5 213.5L481.5 262.7L427.2 262.7L427.2 282.4C427.2 312.2 432.8 346.8 447.7 371.7C462.3 395.3 488.7 412.1 527.8 412.1C569.5 412.1 590.8 380.3 590.8 316.5C590.8 282.9 582.5 256.6 574.9 238.4L619.2 226.9C627.5 249.9 640 280.3 640 317.9ZM330.1 233.2C330.1 319.2 288.9 382.4 193.5 382.4C96.4 382.4 45.1 319.2 45.1 233.2C45.1 146.6 98.5 83.9 194.8 83.9C292.4 83.9 330.1 151.3 330.1 233.2ZM276.9 228.4C276.9 175.7 256.6 129.3 194.8 129.3C132.4 129.3 98.5 175.7 98.5 228.4C98.5 278.6 130.2 336.6 191.9 336.6C276.9 336.6 276.9 278.6 276.9 228.4Z"/>
</svg>
