
<svg xmlns="http://www.w3.org/2000/svg" viewBox="0 0 512 512" width="100%" height="100%">
  <path fill="currentColor" d="M86.6 64C119 35.5 158.6 15 202.3 5.6C238 -1.9 275.1 .4 309.3 12.8C345.6 26.3 376.4 50.5 398 82.3C419.7 114.1 431.2 152.3 431.2 191.4C431.2 266.4 382.6 333.2 313.6 360.3L307.4 362.3V434.6H358.6C373.1 434.6 384.9 446.4 384.9 461.7C384.9 477 373.1 488.9 358.6 488.9H153.4C138.9 488.9 127.1 477 127.1 461.7C127.1 446.4 138.9 434.6 153.4 434.6H204.6V362.3L198.4 360.3C129.4 333.2 80.8 266.4 80.8 191.4C80.8 147.7 93.7 105.3 118.1 71.8C133.8 49.9 158.3 31.8 186.6 19.6C191.6 17.5 197.3 19.1 200 23.8C202.7 28.5 201.8 34.3 197.5 37.8C158.8 68.3 137.8 127.4 149.7 185C155.5 213.4 169.7 239.7 190.1 261C210.5 282.3 236.6 297.4 265.1 304C327.3 318.8 392.5 295.4 426.9 246.6C431.1 240.4 437.8 240.2 442.4 246C447 251.8 447.4 260.7 442.8 267.2C418.7 305 379.9 332.7 336.9 343.9L336.9 434.6H307.4V373.1C296.3 374.5 285.1 375.1 273.8 374.5C260.3 373.7 246.9 371.1 234 367.1L234 434.6H204.6V343.9C159.3 331.8 119.7 301.3 95.1 261C76.2 230.9 65.8 196.8 65.6 161.7C65.3 98.8 76.1 71 86.6 64V64zM273.8 155.4C273.8 140.1 262 128.9 247.5 128.9C234.5 128.9 224.3 138.1 222.2 148.6C221.7 151.3 221.5 154 221.5 156.7C221.5 170.2 233.1 181.1 247.5 181.1C260.6 181.1 270.8 172 272.8 161.4C273.4 159.5 273.8 157.4 273.8 155.4zM299.1 155.7C299.1 175.9 289.3 193.8 273.8 204.7C269.1 208 263.6 210.4 257.7 211.8C254.4 212.7 250.9 213.1 247.3 213.1C235.3 213.1 224.3 209 215.6 201.8C200.3 190.8 190.2 172.8 190.2 152.9C190.2 132 201.3 114 217.2 103.3C225.7 97.5 235.7 94 246.5 94C250.1 94 253.6 94.4 257.1 95.3C264.4 96.9 271.1 100.1 276.9 104.6C290.2 115.8 299.1 134.4 299.1 155.7z"/>
</svg>
